<svg width="62" height="31" viewBox="0 0 62 31" fill="none" xmlns="http://www.w3.org/2000/svg">
<path d="M24.8336 21.037L7.8256 11.2183C7.06293 10.777 6.2296 10.5663 5.40827 10.5663C3.73493 10.5663 2.10693 11.437 1.2096 12.9903C-0.127734 15.3063 0.6656 18.269 2.9816 19.6063L19.9909 29.425C20.7523 29.865 21.5856 30.0743 22.4069 30.0743C24.0816 30.0743 25.7083 29.2063 26.6056 27.653C27.9443 25.337 27.1496 22.3743 24.8336 21.037Z" fill="white"/>
<path d="M58.7509 11.2179L41.7429 1.39789C40.9803 0.957887 40.1469 0.747219 39.3256 0.747219C37.6523 0.747219 36.0243 1.61655 35.1269 3.16989C33.7896 5.48589 34.5843 8.44855 36.9003 9.78589L53.9083 19.6059C54.6696 20.0459 55.5029 20.2552 56.3243 20.2552C57.9989 20.2552 59.6269 19.3872 60.5243 17.8326C61.8616 15.5179 61.0669 12.5552 58.7509 11.2179Z" fill="white"/>
<path d="M53.234 20.7725L45.2953 16.1885L36.9007 21.0365C34.5833 22.3739 33.79 25.3365 35.1273 27.6525C36.0233 29.2059 37.6513 30.0752 39.326 30.0752C40.1473 30.0752 40.9807 29.8645 41.7433 29.4245L55.414 21.5312C54.65 21.4165 53.9087 21.1619 53.234 20.7725Z" fill="white"/>
<path d="M8.49891 10.0512L16.4376 14.6339L24.8336 9.78588C27.1496 8.44855 27.9429 5.48588 26.6056 3.16988C25.2682 0.853881 22.3069 0.0605468 19.9909 1.39788L6.31891 9.29121C7.08291 9.40588 7.82424 9.66055 8.49891 10.0512Z" fill="white"/>
</svg>
